<?xml version="1.0" encoding="utf-8"?>
<svg version="1.1" xmlns="http://www.w3.org/2000/svg" width="30px" height="30px" viewBox="0 0 30 30">
<g>
	<path fill="#EE2200" d="M30,15c0,8.289-6.716,15.001-15,15.001C6.717,30.001,0,23.289,0,15C0,6.716,6.717,0,14.999,0
		C23.284,0,30,6.716,30,15z"/>
	<g>
		<path fill="#FFFFFF" d="M8.455,7.739v5.147c0.783-0.934,1.722-1.405,2.812-1.405c0.561,0,1.064,0.107,1.515,0.32
			c0.452,0.211,0.791,0.482,1.018,0.811c0.23,0.332,0.385,0.696,0.469,1.097c0.084,0.398,0.125,1.021,0.125,1.862v5.503h-2.436
			v-4.956c0-0.984-0.043-1.607-0.136-1.872c-0.093-0.267-0.255-0.476-0.489-0.63c-0.234-0.159-0.526-0.236-0.878-0.236
			c-0.404,0-0.766,0.102-1.08,0.301c-0.321,0.202-0.552,0.503-0.698,0.906c-0.149,0.403-0.223,0.999-0.22,1.788l-0.003,4.699H6.021
			V7.739H8.455z"/>
		<path fill="#FFFFFF" d="M18.042,7.739v5.147c0.783-0.934,1.722-1.405,2.812-1.405c0.559,0,1.064,0.107,1.518,0.32
			c0.449,0.211,0.787,0.482,1.015,0.811c0.229,0.332,0.385,0.696,0.469,1.097c0.083,0.398,0.125,1.021,0.125,1.862v5.503h-2.433
			v-4.956c0-0.984-0.046-1.607-0.139-1.872c-0.093-0.267-0.255-0.476-0.489-0.63c-0.232-0.159-0.526-0.236-0.879-0.236
			c-0.403,0-0.765,0.102-1.079,0.301c-0.317,0.202-0.55,0.503-0.698,0.906c-0.146,0.403-0.22,0.999-0.22,1.788v4.699h-2.434V7.739
			H18.042z"/>
	</g>
</g>
</svg>
